<?xml version="1.0" standalone="no"?>
<!DOCTYPE svg PUBLIC "-//W3C//DTD SVG 20010904//EN"
 "http://www.w3.org/TR/2001/REC-SVG-20010904/DTD/svg10.dtd">
<svg version="1.0" xmlns="http://www.w3.org/2000/svg"
 width="170.000000pt" height="161.000000pt" viewBox="0 0 170.000000 161.000000"
 preserveAspectRatio="xMidYMid meet">

<g transform="translate(0.000000,161.000000) scale(0.100000,-0.100000)"
fill="#000000" stroke="none">
<path d="M574 1265 c-169 -41 -300 -195 -339 -399 -33 -174 -9 -398 58 -539
43 -88 135 -192 206 -230 140 -76 403 -74 509 4 46 34 92 116 92 164 0 111
-81 194 -191 195 -139 0 -207 -194 -89 -255 41 -21 71 -19 111 8 64 43 34 122
-32 85 -42 -24 -49 -23 -49 11 0 40 24 61 70 61 31 0 43 -6 65 -32 22 -26 26
-39 22 -70 -15 -112 -120 -146 -259 -86 -63 27 -131 102 -148 163 -26 93 3
205 67 255 37 29 48 25 61 -19 20 -65 47 -91 97 -91 46 0 69 17 63 47 -2 10
-14 19 -28 21 -26 4 -50 27 -50 49 0 10 35 13 160 13 144 0 161 -2 166 -17 3
-10 15 -38 27 -63 22 -45 22 -45 79 -48 47 -2 58 0 67 16 13 25 -5 50 -39 57
-23 4 -50 29 -50 46 0 4 53 9 118 11 107 3 122 5 155 28 20 14 32 27 26 28 -5
2 -16 -2 -24 -8 -18 -15 -20 1 -3 18 8 8 9 12 1 12 -6 0 -19 -7 -27 -16 -9 -8
-16 -12 -16 -7 0 5 5 14 11 20 8 8 8 13 0 17 -6 4 -11 2 -11 -4 0 -6 -5 -8
-10 -5 -6 4 -8 11 -5 16 3 5 -1 6 -9 3 -9 -3 -16 -2 -16 4 0 14 -105 72 -130
72 -11 0 -23 7 -27 15 -6 18 -93 65 -119 65 -11 0 -15 6 -11 19 3 14 1 18 -10
14 -7 -3 -21 2 -31 10 -9 8 -36 21 -59 29 -24 7 -43 16 -43 20 0 5 -5 8 -11 8
-6 0 -41 17 -77 37 -37 21 -69 38 -72 39 -20 3 -58 29 -54 35 3 5 -1 9 -10 9
-8 0 -16 3 -18 8 -5 12 -86 52 -105 52 -10 0 -26 8 -34 18 -9 9 -25 24 -37 32
-16 10 -18 16 -9 22 17 11 122 0 175 -17 42 -15 142 -64 174 -87 9 -7 20 -10
23 -7 9 9 30 118 23 124 -3 3 -36 12 -74 20 -82 18 -229 18 -300 0z"/>
<path d="M1242 1038 c-20 -20 -14 -56 13 -74 23 -15 27 -15 50 0 27 18 33 54
13 74 -15 15 -61 15 -76 0z"/>
<path d="M1173 915 c0 -8 4 -12 9 -9 5 3 6 10 3 15 -9 13 -12 11 -12 -6z"/>
<path d="M1526 708 c3 -5 10 -6 15 -3 13 9 11 12 -6 12 -8 0 -12 -4 -9 -9z"/>
</g>
</svg>
